<svg id="Layer_1" enable-background="new 0 0 512 512" height="512" viewBox="0 0 512 512" width="512" xmlns="http://www.w3.org/2000/svg"><g><g><path d="m385.208 463.801c-35.271 0-63.875-28.517-63.875-63.858v-26.73l-28.456 9.485c-5.389 1.797-11.332.394-15.35-3.623l-13.345-13.344c-15.73-15.737-40.179-18.961-59.449-7.841l-92.281 53.238c-24.817 14.323-56.669 3.326-67.312-23.33l-41.061-102.652c-2.707-6.761-4.079-13.883-4.079-21.168 0-20.56 11.419-39.033 29.8-48.218l55.813-27.906c10.153-5.077 18.846-12.751 25.139-22.192l27.23-40.847c13.886-20.819 41.619-29.696 65.758-18.3l8.003-12.014c12.909-19.349 36.731-28.559 59.283-22.925l36.812 9.207c4.414 1.104 8.089 4.151 9.99 8.284 1.9 4.134 1.823 8.907-.212 12.976l-11.23 22.462 26.522 26.525c2.31 2.308 5.711 3.205 8.865 2.333 3.149-.874 5.604-3.389 6.396-6.562l21.811-87.237c1.472-5.886 6.344-10.306 12.345-11.199 5.988-.897 11.947 1.916 15.07 7.119l45.911 76.519c2.895 4.822 4.427 10.351 4.427 15.982v53.603l42.883 42.883c13.79 13.79 21.384 32.121 21.384 51.617 0 18.633-5.22 36.827-15.094 52.625l-50.841 81.358c-13.21 21.122-35.959 33.73-60.857 33.73zm-40.104-123.569c3.912 2.819 6.229 7.347 6.229 12.169v47.542c0 18.356 14.836 33.858 33.859 33.858 14.506 0 27.746-7.339 35.434-19.631l50.838-81.355c12.671-20.271 16.155-48.914-2.061-67.131l-47.276-47.276c-2.813-2.813-4.394-6.628-4.394-10.606v-59.816c0-.19-.2-.726-.15-.545.15.545-27.28-45.469-27.28-45.469l-13.028 52.104c-3.404 13.633-13.939 24.44-27.493 28.199-13.554 3.75-28.138-.095-38.082-10.027l-34.17-34.17c-4.567-4.565-5.7-11.541-2.812-17.317l7.704-15.41-18.672-4.67c-10.286-2.569-21.154 1.633-27.044 10.459l-16.427 24.651c-3.666 5.499-10.497 7.953-16.827 6.034-2.537-.768-4.753-2.167-6.496-3.992-9.966-9.684-26.289-7.954-34.012 3.624l-27.23 40.846c-9.183 13.777-21.868 24.977-36.684 32.385l-55.817 27.908c-13.335 6.663-15.397 21.126-11.282 31.401.001.002.002.005.003.007l41.064 102.664c3.861 9.67 15.429 13.689 24.461 8.477l92.282-53.239c31.009-17.894 70.346-12.705 95.657 12.615l6.787 6.787 39.404-13.135c4.564-1.524 9.595-.766 13.515 2.059z"/></g></g></svg>